<?xml version="1.0" encoding="utf-8"?>
<!-- Generator: Adobe Illustrator 21.1.0, SVG Export Plug-In . SVG Version: 6.00 Build 0)  -->
<svg version="1.1" id="Layer_1" xmlns="http://www.w3.org/2000/svg" xmlns:xlink="http://www.w3.org/1999/xlink" x="0px" y="0px"
	 viewBox="0 0 1300 400" style="enable-background:new 0 0 1300 400;" xml:space="preserve">
<style type="text/css">
	.st0{fill:#DA0009;}
</style>
<g>
	<path id="G_1_" d="M70.8,215.8h109.7h79.3h2.3v-33.3h-48h-33.6H62c-26.4,0-48,21.6-48,48v107.1c0,26.4,21.6,48,48,48h152.1
		c26.4,0,48-21.6,48-48v-36.9v-33.3h-33.3h-68.3v33.3h68.3v28.1c0,12.9-10.6,23.5-23.5,23.5H70.8c-12.9,0-23.5-10.6-23.5-23.5v-89.5
		C47.3,226.4,57.9,215.8,70.8,215.8z"/>
	<path id="S" d="M332,215.8h53.3h137.5h5.7v-33.3h-58.3h-84.9h-49.9c-32,0-58.3,26.2-58.3,58.3v1.7c0,16.3,6.7,31,17.6,41.6
		c10.5,10.3,24.9,16.6,40.7,16.6h134.9h5c11,0,20,9,20,20v11.7c0,11-9,20-20,20h-54.9H282.7h-5.7v33.3h58.3h84.9h49.9
		c32,0,58.3-26.2,58.3-58.3v-1.7c0-16.3-6.7-31-17.6-41.6c-10.5-10.3-24.9-16.6-40.7-16.6H335.3H332c-11,0-20-9-20-20v-11.7
		C312,224.8,321,215.8,332,215.8z"/>
	<g id="M_1_">
		<path d="M752.8,182.5H606.3c-27.9,0-50.8,22.8-50.8,50.8v101.6v50.8h33.3v-3.1V235.8c0-11,9-20,20-20h141.5c11,0,20,9,20,20v146.7
			v3.1h33.3v-50.8V233.3C803.6,205.4,780.7,182.5,752.8,182.5z"/>
		<rect x="662.9" y="265.8" class="st0" width="33.3" height="36.6"/>
	</g>
	<path id="P" class="st0" d="M938,245.8h-83.2h-25v25v36.6v53.3v25h13.3v-2.9v-50.4h11.7H938c13.8,0,25-11.2,25-25v-36.6
		C963,257,951.8,245.8,938,245.8z M949.7,301.2c0,9.8-8,17.8-17.8,17.8h-88.8v-59.9h88.8c9.8,0,17.8,8,17.8,17.8V301.2z"/>
	<path id="R" class="st0" d="M1117.8,304.1v-30.2c0-15.5-12.6-28.1-28.1-28.1h-82h-8.1h-20v20v8.1v30.2v40v13.5v8.1v20H993v-1.1v-3
		v-50.7h90.5c11.7,0,21.1,9.4,21.1,21.1v29.7v3v1.1h13.3v-20v-8.1V344c0-11-8.9-20-20-20C1108.9,324,1117.8,315.1,1117.8,304.1z
		 M1104.5,296.2c0,11.7-9.5,21.1-21.1,21.1H993v-58.3h90.4c11.7,0,21.1,9.5,21.1,21.1V296.2z"/>
	<path id="O" class="st0" d="M1252.7,245.8h-84.9c-18.4,0-33.3,14.9-33.3,33.3v73.3c0,18.4,14.9,33.3,33.3,33.3h84.9
		c18.4,0,33.3-14.9,33.3-33.3v-73.3C1286,260.7,1271.1,245.8,1252.7,245.8z M1272.7,352.3c0,11-8.9,20-20,20h-84.9
		c-11,0-20-8.9-20-20v-73.3c0-11,8.9-20,20-20h84.9c11,0,20,8.9,20,20V352.3z"/>
	<path id="also_1_" class="st0" d="M876.4,222.5h-13.3c0-55.2-44.7-99.9-99.9-99.9v-13.3C825.7,109.3,876.4,159.9,876.4,222.5z"/>
	<path id="kozepso" class="st0" d="M924.7,222.5h-13.3c0-81.8-66.3-148.2-148.2-148.2V61C852.4,61,924.7,133.3,924.7,222.5z"/>
	<path id="felso" class="st0" d="M971.3,222.5H958c0-107.6-87.2-194.8-194.8-194.8V14.4C878.2,14.4,971.3,107.5,971.3,222.5z"/>
</g>
</svg>
